<?xml version="1.0" encoding="UTF-8"?>
<svg width="43px" height="64px" viewBox="0 0 43 64" version="1.1" xmlns="http://www.w3.org/2000/svg" xmlns:xlink="http://www.w3.org/1999/xlink">
    <!-- Generator: Sketch 3.7 (28169) - http://www.bohemiancoding.com/sketch -->
    <title>Slice 1</title>
    <desc>Created with Sketch.</desc>
    <defs></defs>
    <g id="Page-1" stroke="none" stroke-width="1" fill="none" fill-rule="evenodd">
        <g id="iStock-467972568" transform="translate(-9.000000, -246.000000)" fill="#FFFFFF">
            <path d="M31,255.001 C31,252.375 28.987,251.001 27,251.001 C25.013,251.001 23,252.375 23,255.001 L23,280.586 L22.293,281.293 C21.902,281.684 21.902,282.317 22.293,282.708 C22.488,282.903 22.744,283 23,283 C23.256,283 23.512,282.903 23.707,282.708 L24.707,281.708 C24.895,281.52 25,281.266 25,281 L25,255.001 C25,253.524 26.077,253.001 27,253.001 C27.923,253.001 29,253.524 29,255.001 C29,256.017 29.961,273.321 30.002,274.057 C30.032,274.608 30.487,275.028 31.056,274.999 C31.606,274.969 32.029,274.497 31.998,273.946 C31.721,268.946 31,255.799 31,255.001 L42.5162375,264.934724" id="Fill-146"></path>
            <path d="M28,308 L47,308 L47,302 L28,302 L28,308 Z M48,310 L27,310 C26.447,310 26,309.553 26,309 L26,301 C26,300.448 26.447,300 27,300 L48,300 C48.553,300 49,300.448 49,301 L49,309 C49,309.553 48.553,310 48,310 L48,310 Z" id="Fill-147"></path>
            <path d="M31.705,270.709 C32.184,270.235 33.709,269 34.999,269 C36.093,269 37.349,269.883 37.999,270.442 L37.999,272 C37.999,272.553 38.446,273 39,273 C39.553,273 40,272.553 40,272 L40,270.6 C40.688,270.282 41.408,270.245 42.154,270.524 C43.207,270.92 43.931,271.793 44,272 L44.018,272.038 C44.02,272.131 44.02,272.225 44.052,272.317 C44.227,272.84 44.789,273.124 45.316,272.95 C46.405,272.588 47.256,272.639 47.914,273.116 C48.865,273.801 50,275.725 50,281 C50,283.954 48.947,286.711 47.93,289.377 C46.938,291.975 46,294.43 46,297 L46,300.5 C46,300.688 46.064,300.852 46.153,301 L47.847,301 C47.935,300.852 48,300.688 48,300.5 L48,297 C48,294.799 48.873,292.512 49.798,290.09 C50.881,287.254 52,284.323 52,281 C52,276.018 51.046,272.907 49.083,271.493 C48.101,270.786 46.929,270.565 45.595,270.819 C45.125,270.075 44.314,269.377 43.53,268.958 C42.068,268.177 40.533,268.126 39.135,268.784 C38.31,268.101 36.718,267.001 34.999,267.001 C32.652,267.001 30.526,269.059 30.292,269.293 C29.902,269.684 29.902,270.315 30.291,270.706 C30.682,271.098 31.314,271.098 31.705,270.709" id="Fill-148"></path>
            <path d="M27,297.479 L27,300.979 L27.005,301 L28.995,301 L29,300.979 L29,297.479 C29,294.745 26.533,292.92 24.147,291.157 C22.439,289.893 20.673,288.586 19.895,287.032 C17.834,282.911 15.786,279.903 11.028,276.024 C11.133,275.231 11.522,274.661 12.19,274.327 C13.56,273.641 15.751,274.042 17.4,275.278 C20.556,277.645 22.41,278.946 23.827,278.241 C24.879,277.715 24.553,274.479 24,274.479 C23.447,274.479 22.936,276.309 22.895,276.428 C22.135,276.329 19.853,274.618 18.601,273.678 C16.343,271.985 13.338,271.516 11.296,272.538 C9.815,273.278 9,274.676 9,276.479 C9,276.782 9.138,277.069 9.375,277.26 C14.135,281.067 16.115,283.946 18.105,287.926 C19.099,289.911 21.061,291.362 22.959,292.764 C25.037,294.301 27,295.752 27,297.479" id="Fill-149"></path>
            <path d="M44,252.001 C44,251.448 43.553,251.001 43,251.001 L33,251.001 C32.447,251.001 32,251.448 32,252.001 C32,252.554 32.447,253.001 33,253.001 L43,253.001 C43.553,253.001 44,252.554 44,252.001" id="Fill-150"></path>
            <path d="M32,258 L41.001,258 L41.001,256 L33.6859288,256 L32,256 C31.447,256 31,256.447 31,257 C31,257.553 31.447,258 32,258 Z" id="Fill-151" transform="translate(36.000500, 257.000000) scale(-1, 1) translate(-36.000500, -257.000000) "></path>
            <path d="M34,246.118 L30.4985781,246.118 L17,246.118 C16.447,246.118 16,246.565 16,247.118 C16,247.671 16.447,248.118 17,248.118 L34,248.118 C36.206,248.118 38,249.912 38,252.118 C38,253.948 36.758,255.477 35.078,255.952 C35.106,256.535 35.142,257.227 35.182,258 C37.926,257.45 40,255.022 40,252.118 C40,248.809 37.309,246.118 34,246.118 L42.4099415,244.259065" id="Fill-152" transform="translate(29.204971, 251.129532) scale(-1, 1) translate(-29.204971, -251.129532) "></path>
        </g>
    </g>
</svg>