{
    "asset" : {
        "generator" : "Khronos Blender glTF 2.0 I/O",
        "version" : "2.0"
    },
    "scene" : 0,
    "scenes" : [
        {
            "name" : "Scene",
            "nodes" : [
                0
            ]
        }
    ],
    "nodes" : [
        {
            "mesh" : 0,
            "name" : "baked"
        }
    ],
    "materials" : [
        {
            "emissiveFactor" : [
                0,
                0,
                0
            ],
            "name" : "baked",
            "normalTexture" : {
                "index" : 0,
                "texCoord" : 0
            },
            "occlusionTexture" : {
                "index" : 1,
                "texCoord" : 0
            },
            "pbrMetallicRoughness" : {
                "baseColorFactor" : [
                    1,
                    1,
                    1,
                    1
                ],
                "baseColorTexture" : {
                    "index" : 2,
                    "texCoord" : 0
                },
                "metallicFactor" : 1,
                "metallicRoughnessTexture" : {
                    "index" : 3,
                    "texCoord" : 0
                },
                "roughnessFactor" : 0.1599999964237213
            }
        }
    ],
    "meshes" : [
        {
            "name" : "Cylinder.005",
            "primitives" : [
                {
                    "attributes" : {
                        "POSITION" : 0,
                        "NORMAL" : 1,
                        "TANGENT" : 2,
                        "TEXCOORD_0" : 3
                    },
                    "indices" : 4,
                    "material" : 0
                }
            ]
        }
    ],
    "textures" : [
        {
            "source" : 0
        },
        {
            "source" : 1
        },
        {
            "source" : 2
        },
        {
            "source" : 3
        }
    ],
    "images" : [
        {
            "mimeType" : "image/jpeg",
            "name" : "tibetian_normal.jpg",
            "uri" : "tibetian_normal.jpg"
        },
        {
            "mimeType" : "image/jpeg",
            "name" : "tibetian_occlusion++.jpg",
            "uri" : "tibetian_occlusion++.jpg"
        },
        {
            "mimeType" : "image/jpeg",
            "name" : "tibetian_albedo.jpg",
            "uri" : "tibetian_albedo.jpg"
        },
        {
            "mimeType" : "image/jpeg",
            "name" : "tibetian_roughnes.jpg",
            "uri" : "tibetian_roughnes.jpg"
        }
    ],
    "accessors" : [
        {
            "bufferView" : 0,
            "componentType" : 5126,
            "count" : 1200,
            "max" : [
                3.242993116378784,
                7.249467372894287,
                3.24299693107605
            ],
            "min" : [
                -3.2429981231689453,
                -4.114247798919678,
                -3.242995023727417
            ],
            "type" : "VEC3"
        },
        {
            "bufferView" : 1,
            "componentType" : 5126,
            "count" : 1200,
            "type" : "VEC3"
        },
        {
            "bufferView" : 2,
            "componentType" : 5126,
            "count" : 1200,
            "type" : "VEC4"
        },
        {
            "bufferView" : 3,
            "componentType" : 5126,
            "count" : 1200,
            "type" : "VEC2"
        },
        {
            "bufferView" : 4,
            "componentType" : 5123,
            "count" : 6624,
            "type" : "SCALAR"
        }
    ],
    "bufferViews" : [
        {
            "buffer" : 0,
            "byteLength" : 14400,
            "byteOffset" : 0
        },
        {
            "buffer" : 0,
            "byteLength" : 14400,
            "byteOffset" : 14400
        },
        {
            "buffer" : 0,
            "byteLength" : 19200,
            "byteOffset" : 28800
        },
        {
            "buffer" : 0,
            "byteLength" : 9600,
            "byteOffset" : 48000
        },
        {
            "buffer" : 0,
            "byteLength" : 13248,
            "byteOffset" : 57600
        }
    ],
    "buffers" : [
        {
            "byteLength" : 70848,
            "uri" : "prayerdrum.bin"
        }
    ]
}
